<?xml version="1.0" encoding="UTF-8" standalone="no"?>
<svg
   xmlns:osb="http://www.openswatchbook.org/uri/2009/osb"
   xmlns:dc="http://purl.org/dc/elements/1.1/"
   xmlns:cc="http://creativecommons.org/ns#"
   xmlns:rdf="http://www.w3.org/1999/02/22-rdf-syntax-ns#"
   xmlns:svg="http://www.w3.org/2000/svg"
   xmlns="http://www.w3.org/2000/svg"
   xmlns:sodipodi="http://sodipodi.sourceforge.net/DTD/sodipodi-0.dtd"
   xmlns:inkscape="http://www.inkscape.org/namespaces/inkscape"
   inkscape:export-ydpi="96"
   inkscape:export-xdpi="96"
   inkscape:export-filename="/home/josh/projects/MakeJSGreatAgain/MakeJSGreatAgain.png"
   sodipodi:docname="MakeJSGreatAgain.svg"
   inkscape:version="1.0 (4035a4fb49, 2020-05-01)"
   id="svg8"
   version="1.1"
   viewBox="0 0 140 65"
   height="65mm"
   width="140mm">
  <defs
     id="defs2">
    <rect
       id="rect1128"
       height="16.076227"
       width="69.637384"
       y="56.39238"
       x="120.94703" />
    <linearGradient
       osb:paint="solid"
       id="linearGradient991">
      <stop
         id="stop989"
         offset="0"
         style="stop-color:#000000;stop-opacity:1;" />
    </linearGradient>
    <inkscape:perspective
       id="perspective16"
       inkscape:persp3d-origin="105 : -133 : 1"
       inkscape:vp_z="186.68591 : -68.369563 : 1"
       inkscape:vp_y="0 : 999.99995 : 0"
       inkscape:vp_x="0 : -83.500003 : 1"
       sodipodi:type="inkscape:persp3d" />
  </defs>
  <sodipodi:namedview
     inkscape:window-maximized="0"
     inkscape:window-y="27"
     inkscape:window-x="0"
     inkscape:window-height="1051"
     inkscape:window-width="1918"
     showgrid="false"
     inkscape:document-rotation="0"
     inkscape:current-layer="layer1"
     inkscape:document-units="mm"
     inkscape:cy="36.731556"
     inkscape:cx="97.439892"
     inkscape:zoom="1"
     inkscape:pageshadow="2"
     inkscape:pageopacity="1"
     borderopacity="1.0"
     bordercolor="#666666"
     pagecolor="#ffffff"
     id="base">
    <inkscape:grid
       id="grid1054"
       type="xygrid" />
  </sodipodi:namedview>
  <metadata
     id="metadata5">
    <rdf:RDF>
      <cc:Work
         rdf:about="">
        <dc:format>image/svg+xml</dc:format>
        <dc:type
           rdf:resource="http://purl.org/dc/dcmitype/StillImage" />
        <dc:title></dc:title>
      </cc:Work>
    </rdf:RDF>
  </metadata>
  <g
     inkscape:groupmode="layer"
     id="g1052"
     inkscape:label="Background"
     style="display:inline;opacity:1">
    <rect
       style="opacity:0.996;fill:#294e80;fill-opacity:1;stroke:none;stroke-width:0.440795;stroke-linejoin:miter;stroke-miterlimit:4;stroke-dasharray:none;stroke-opacity:1"
       id="rect1050"
       width="139.99101"
       height="64.993965"
       x="0.0060000564"
       y="0.0040017641"
       inkscape:export-xdpi="96"
       inkscape:export-ydpi="96" />
  </g>
  <g
     style="display:inline"
     inkscape:label="Main content"
     id="layer5"
     inkscape:groupmode="layer">
    <g
       style="display:inline"
       id="layer1"
       inkscape:groupmode="layer"
       inkscape:label="Text">
      <text
         id="text12"
         y="50.585506"
         x="68.791306"
         style="font-size:12.7px;line-height:1.05;font-family:'Century Old Style Std';-inkscape-font-specification:'Century Old Style Std';text-align:center;text-anchor:middle;fill:#000000;fill-opacity:0;stroke-width:0.264583"
         xml:space="preserve"><tspan
           style="font-size:12.7px;text-align:center;text-anchor:middle;fill:#ffffff;fill-opacity:1;stroke:none;stroke-width:0.264583;stroke-opacity:1"
           y="50.585506"
           x="68.791306"
           id="tspan10"
           sodipodi:role="line">MAKE JAVASCRIPT</tspan><tspan
           id="tspan14"
           style="font-size:12.7px;text-align:center;text-anchor:middle;fill:#00ff00;fill-opacity:0;stroke-width:0.264583"
           y="63.920506"
           x="68.791306"
           sodipodi:role="line"><tspan
             id="tspan1074"
             style="fill:#ffffff;fill-opacity:1;stroke:none;stroke-opacity:1">GREAT AGAI</tspan><tspan
             id="tspan1132"
             style="fill:#ffffff;fill-opacity:1">N</tspan></tspan></text>
    </g>
    <g
       inkscape:groupmode="layer"
       id="g1023"
       inkscape:label="TS Logo"
       style="display:inline">
      <g
         style="fill-opacity:1;stroke:#000000;stroke-width:10.267;stroke-miterlimit:4;stroke-dasharray:none;stroke-opacity:1"
         id="g1021"
         transform="matrix(0.11741045,0,0,0.11927802,54.37519,2.7333445)">
        <polygon
           style="fill:none;fill-opacity:1;stroke:#ffffff;stroke-width:10.267;stroke-miterlimit:4;stroke-dasharray:none;stroke-opacity:1"
           id="polygon1015"
           points="0,128 0,0 128,0 256,0 256,128 256,256 128,256 0,256 "
           transform="matrix(1,0,0,-1,0,256)"
           fill="#007acc" />
        <path
           style="fill:#ffffff;fill-opacity:1;stroke:none;stroke-width:10.267;stroke-miterlimit:4;stroke-dasharray:none;stroke-opacity:1"
           id="path1017"
           transform="rotate(180,101.63464,176.14299)"
           fill="#ffffff"
           d="m 146.65813,223.43686 0.0813,-10.48381 H 130.07908 113.41877 V 165.61337 118.27369 H 101.63464 89.850513 v 47.33968 47.33968 H 73.190195 56.529878 v 10.28064 c 0,5.68889 0.121904,10.44317 0.284444,10.56508 0.121905,0.16254 20.39873,0.24381 44.982858,0.20317 l 44.73905,-0.1219 z" />
        <path
           style="fill:#ffffff;fill-opacity:1;stroke:none;stroke-width:10.267;stroke-miterlimit:4;stroke-dasharray:none;stroke-opacity:1"
           id="path1019"
           transform="matrix(1,0,0,-1,0,352.38048)"
           fill="#ffffff"
           d="m 206.56663,234.27214 c 6.50159,-1.62539 11.45905,-4.51047 16.01016,-9.22412 2.35683,-2.51937 5.85143,-7.11111 6.13587,-8.20826 0.0813,-0.32508 -11.0527,-7.8019 -17.79809,-11.9873 -0.24381,-0.16254 -1.21905,0.89397 -2.31619,2.51937 -3.29143,4.79492 -6.7454,6.8673 -12.02794,7.23301 -7.76127,0.52826 -12.75936,-3.53524 -12.71873,-10.32127 0,-1.99111 0.28444,-3.16952 1.09714,-4.79492 1.70667,-3.53524 4.87619,-5.64825 14.83175,-9.95555 18.32635,-7.88318 26.16889,-13.08445 31.04508,-20.48 5.44508,-8.24889 6.66413,-21.41461 2.96635,-31.20762 -4.06349,-10.64635 -14.14095,-17.87937 -28.32254,-20.27683 -4.38857,-0.77206 -14.79111,-0.65016 -19.50476,0.20318 -10.28064,1.82857 -20.03302,6.90793 -26.04699,13.57206 -2.35682,2.60064 -6.94857,9.38667 -6.66412,9.87429 0.1219,0.16254 1.17841,0.81269 2.35682,1.50349 1.13778,0.65016 5.44508,3.12889 9.50857,5.48571 l 7.35492,4.26667 1.54413,-2.27556 c 2.15365,-3.29143 6.8673,-7.8019 9.71175,-9.30539 8.16761,-4.30731 19.38285,-3.69778 24.9092,1.25968 2.35683,2.15365 3.33207,4.38857 3.33207,7.68 0,2.96635 -0.36572,4.26667 -1.90985,6.50159 -1.99111,2.84444 -6.0546,5.2419 -17.59492,10.24 -13.20635,5.68889 -18.89523,9.22412 -24.0965,14.83174 -3.00699,3.2508 -5.85143,8.45207 -7.02985,12.8 -0.97523,3.61651 -1.21904,12.6781 -0.44698,16.33524 2.72254,12.75937 12.35302,21.65841 26.25016,24.29968 4.51048,0.85334 14.99428,0.52826 19.42349,-0.56889 z" />
      </g>
    </g>
  </g>
</svg>
